<?xml version="1.0" encoding="UTF-8"?>
<svg width="48" height="48" version="1.1" viewBox="0 0 48 48" xmlns="http://www.w3.org/2000/svg"><g transform="matrix(1.5 0 0 1.5 .75 .75)"><path d="m5 0h24m-25 1h1m23 0h1m-26 1h1m23 0h2m-27 1h1m23 0h3m-28 1h1m24 0h3m-28 1h1m2 0h20m2 0h3m-28 1h1m24 0h3m-28 1h1m24 0h3m-28 1h1m24 0h3m-28 1h1m24 0h3m-28 1h1m24 0h3m-28 1h1m24 0h3m-28 1h1m24 0h3m-28 1h1m24 0h3m-28 1h1m24 0h3m-28 1h1m24 0h3m-28 1h1m24 0h3m-28 1h1m24 0h3m-28 1h1m24 0h3m-28 1h1m24 0h3m-28 1h1m24 0h3m-28 1h1m24 0h3m-28 1h1m24 0h2m-27 1h26m-17 2h1m6 0h1m-11 1h4m7 0h4m-17 1h2m14 0h2m-19 1h1m17 0h2m-20 1h1m17 0h2m-4 1h2" stroke="#808080"/><path d="m5 1h22m-23 1h22m-23 2h23m-23 1h1m21 0h1m-23 1h1m21 0h1m-23 1h1m21 0h1m-23 1h1m21 0h1m-23 1h1m21 0h1m-23 1h1m21 0h1m-23 1h1m21 0h1m-23 1h1m21 0h1m-23 1h1m21 0h1m-23 1h1m21 0h1m-23 1h1m21 0h1m-23 1h1m21 0h1m-23 1h1m21 0h1m-23 1h1m21 0h1m-23 1h1m21 0h1m-23 1h1m21 0h1m-23 1h1m21 0h1m-23 1h23m-14 3h5m-5 1h6m-11 1h3m1 0h10m-11 1h12m-14 1h14m-15 1h1m10 0h2" stroke="#c0c0c0"/><path d="m27 1h1m-2 1h1m-24 1h23m-24 1h1m-1 1h1m21 0h1m-23 1h1m21 0h1m-23 1h1m21 0h1m-23 1h1m21 0h1m-23 1h1m21 0h1m-23 1h1m21 0h1m-23 1h1m21 0h1m-23 1h1m21 0h1m-23 1h1m21 0h1m-23 1h1m21 0h1m-23 1h1m21 0h1m-23 1h1m21 0h1m-23 1h1m21 0h1m-23 1h1m21 0h1m-23 1h1m21 0h1m-23 1h1m21 0h1m-23 1h1m1 0h21m-23 1h1m8 3h1m-1 1h1m-2 1h1m-6 1h5m-5 1h3m0 1h10" stroke="#fff"/><path d="m29 1h1m-1 1h1m-1 1h1m-1 1h1m-1 1h1m-26 1h20m5 0h1m-26 1h7m1 0h5m1 0h6m5 0h1m-26 1h6m2 0h4m2 0h6m5 0h1m-26 1h5m3 0h4m2 0h2m1 0h3m5 0h1m-26 1h4m2 0h1m1 0h5m1 0h1m1 0h4m5 0h1m-26 1h3m1 0h3m1 0h5m1 0h1m1 0h4m5 0h1m-26 1h2m2 0h3m1 0h5m3 0h4m5 0h1m-26 1h3m5 0h5m2 0h5m5 0h1m-26 1h6m5 0h2m2 0h5m5 0h1m-26 1h7m1 0h2m6 0h4m5 0h1m-26 1h7m1 0h4m2 0h1m4 0h1m5 0h1m-26 1h7m1 0h4m6 0h2m5 0h1m-26 1h7m1 0h2m5 0h5m5 0h1m-26 1h7m3 0h10m5 0h1m-26 1h20m5 0h1m-1 1h1m-2 1h1m-2 1h1m-26 1h25m-9 1h1m4 2h1m0 1h1m-1 1h1m-20 1h2m15 0h2m-17 1h15" stroke="#000"/><path d="m11 7h1m-2 1h2m-3 1h1m1 0h1m-4 1h1m2 0h1m-5 1h1m3 0h1m-6 1h2m3 0h1m-4 1h4m-1 1h4m-4 1h1m3 0h2m1 0h2m-9 1h1m7 0h4m-12 1h1m6 0h3m-10 1h1m2 0h4m-7 1h3" stroke="#0ff"/><path d="m17 7h1m-2 1h2m-2 1h2m2 0h1m-4 1h1m1 0h1m-3 1h1m1 0h1m-3 1h3m-3 1h2m-2 1h2m-2 1h1m-2 1h2m-2 1h1" stroke="#f0f"/><path d="m10 9h1m-2 1h1m-3 3h1m2 1h1m3 1h1m2 2h1m3 0h1m-4 1h1" stroke="#008080"/></g></svg>
